# xmcd
#
# Track frame offsets:
#	150
#	12154
#	28997
#	44678
#	63333
#	83738
#	101902
#	113921
#	130777
#	146471
#	165069
#	185479
#
# Disc length: 2715 seconds
#
# Revision: 1
# Processed by: cddbd v1.5.1PL2 Copyright (c) Steve Scherf et al.
# Submitted via: audiograbber 1.83.01
#
DISCID=9c0a990c
DTITLE=Chartbuster - Cb20293
DYEAR=1900
DGENRE=Country
TTITLE0=Coty, Neal (Vocal) -  Right Down Through The Middle Of Us
TTITLE1=Tillis, Pam (Vocal) -  Thunder And Roses
TTITLE2=Singletary, Daryle (Vocal) -  Now And Again
TTITLE3=Andrews, Jessica (Vocal) -  Helplessly, Hopelessly
TTITLE4=Carson, Jeff (Vocal) -  Real Life (I Never Was The Same Again)
TTITLE5=Wright, Chely (Vocal) -  Never Love You Enough
TTITLE6=Coty, Neal  -  Right Down Through The Middle Of Us
TTITLE7=Tillis, Pam  -  Thunder And Roses
TTITLE8=Singletary, Daryle  -  Now And Again
TTITLE9=Andrews, Jessica  -  Helplessly, Hopelessly
TTITLE10=Carson, Jeff  -  Real Life (I Never Was The Same Again)
TTITLE11=Wright, Chely  -  Never Love You Enough
EXTD=
EXTT0=
EXTT1=
EXTT2=
EXTT3=
EXTT4=
EXTT5=
EXTT6=
EXTT7=
EXTT8=
EXTT9=
EXTT10=
EXTT11=
PLAYORDER=
